<svg width="44" height="44" viewBox="0 0 44 44" fill="none" xmlns="http://www.w3.org/2000/svg">
<g clip-path="url(#clip0_4807_108301)">
<circle cx="22" cy="22" r="21.5" fill="#0E1218" stroke="#5D93B2"/>
<path d="M27.0751 18.3233C27.4367 20.3817 26.5622 22.227 24.6138 23.5222C23.3199 24.3816 23.038 24.8971 22.9775 25.08C22.8318 25.5104 22.4303 25.7813 21.9999 25.7813C21.8899 25.7813 21.7799 25.7635 21.6699 25.7277C21.1309 25.5462 20.8408 24.9604 21.0223 24.42C21.3152 23.551 22.0934 22.7206 23.4726 21.8048C24.7499 20.9564 25.2628 19.9335 25.0428 18.6809C24.8256 17.442 23.808 16.4244 22.5678 16.2071C21.6342 16.0421 20.7239 16.2814 20.0103 16.8795C19.3077 17.4694 18.9048 18.3343 18.9048 19.25C18.9048 19.8193 18.4428 20.2813 17.8735 20.2813C17.3043 20.2813 16.8423 19.8193 16.8423 19.25C16.8423 17.7224 17.5133 16.2827 18.6848 15.2996C19.8549 14.3178 21.3977 13.9067 22.9253 14.1748C25.0043 14.5392 26.7107 16.2457 27.0751 18.3233ZM23.3749 28.875C23.3749 29.634 22.7589 30.25 21.9999 30.25C21.2409 30.25 20.6249 29.634 20.6249 28.875C20.6249 28.116 21.2409 27.5 21.9999 27.5C22.7589 27.5 23.3749 28.116 23.3749 28.875Z" fill="white"/>
</g>
<defs>
<clipPath id="clip0_4807_108301">
<rect width="44" height="44" fill="white"/>
</clipPath>
</defs>
</svg>
